<svg width="30" height="30" viewBox="0 0 30 30" fill="none" xmlns="http://www.w3.org/2000/svg">
<path d="M9.135 26.395C8.6075 26.395 8.16292 26.2142 7.80125 25.8525C7.43958 25.4908 7.25917 25.0467 7.26 24.52C7.26083 23.9933 7.44125 23.5487 7.80125 23.1862C8.16292 22.8254 8.6075 22.645 9.135 22.645C9.6625 22.645 10.1067 22.8254 10.4675 23.1862C10.8283 23.5471 11.0092 23.9917 11.01 24.52C11.0108 25.0483 10.83 25.4925 10.4675 25.8525C10.105 26.2125 9.66083 26.3933 9.135 26.395ZM20.865 26.395C20.3383 26.395 19.8942 26.2142 19.5325 25.8525C19.1708 25.4908 18.99 25.0467 18.99 24.52C18.99 23.9933 19.1708 23.5487 19.5325 23.1862C19.8942 22.8254 20.3383 22.645 20.865 22.645C21.3917 22.645 21.8363 22.8254 22.1988 23.1862C22.5596 23.5479 22.74 23.9925 22.74 24.52C22.74 25.0467 22.5596 25.4908 22.1988 25.8525C21.8371 26.2142 21.3925 26.395 20.865 26.395ZM7.35125 6.875L10.6875 13.895H18.9813C19.1254 13.895 19.2533 13.8588 19.365 13.7863C19.4775 13.7137 19.5737 13.6137 19.6537 13.4862L22.9238 7.54875C23.0196 7.37208 23.0275 7.21583 22.9475 7.08C22.8667 6.94333 22.7304 6.875 22.5387 6.875H7.35125ZM6.74 5.625H23.015C23.5575 5.625 23.9658 5.84667 24.24 6.29C24.515 6.7325 24.5296 7.18875 24.2838 7.65875L20.7113 14.1687C20.5304 14.4729 20.2954 14.7117 20.0062 14.885C19.7171 15.0583 19.3992 15.145 19.0525 15.145H10.125L8.60625 17.9325C8.47792 18.125 8.47375 18.3333 8.59375 18.5575C8.71375 18.7817 8.89417 18.8942 9.135 18.895H22.74V20.145H9.135C8.40583 20.145 7.86167 19.8375 7.5025 19.2225C7.14333 18.6075 7.13458 17.99 7.47625 17.37L9.35625 14.02L4.76 4.375H2.5V3.125H5.5525L6.74 5.625Z" fill="white"/>
</svg>
