<svg width="30" height="30" viewBox="0 0 30 30" fill="none" xmlns="http://www.w3.org/2000/svg">
<path d="M24.356 25.1924L16.5285 17.3649C15.9035 17.8974 15.1848 18.3095 14.3723 18.6012C13.5598 18.8929 12.7431 19.0387 11.9223 19.0387C9.9206 19.0387 8.22643 18.3458 6.83977 16.9599C5.4531 15.5741 4.75977 13.8804 4.75977 11.8787C4.75977 9.87702 5.45227 8.18243 6.83727 6.79493C8.22227 5.40743 9.9156 4.71285 11.9173 4.71118C13.9189 4.70952 15.6139 5.40285 17.0023 6.79118C18.3906 8.17952 19.0848 9.8741 19.0848 11.8749C19.0848 12.7433 18.931 13.5837 18.6235 14.3962C18.316 15.2087 17.9118 15.9037 17.411 16.4812L25.2385 24.3074L24.356 25.1924ZM11.9235 17.7874C13.5818 17.7874 14.9818 17.2166 16.1235 16.0749C17.2652 14.9333 17.836 13.5329 17.836 11.8737C17.836 10.2145 17.2652 8.81452 16.1235 7.67368C14.9818 6.53285 13.5818 5.96202 11.9235 5.96118C10.2652 5.96035 8.86477 6.53118 7.72227 7.67368C6.57977 8.81618 6.00893 10.2162 6.00977 11.8737C6.0106 13.5312 6.58143 14.9312 7.72227 16.0737C8.8631 17.2162 10.2631 17.787 11.9223 17.7862" fill="white"/>
</svg>
